<svg width="48" height="48" viewBox="0 0 48 48" fill="none" xmlns="http://www.w3.org/2000/svg">
<path d="M42.4559 22.3681C41.4009 21.7012 40.052 21.6816 38.9769 22.3027C37.548 23.12 35.8452 23.5515 34.0489 23.5515C28.5266 23.5515 24.0326 19.1512 24.0326 13.744C24.0326 11.9852 24.4733 10.3179 25.308 8.92524C25.9424 7.86603 25.9157 6.55182 25.2412 5.51222C24.5601 4.47916 23.3315 3.89725 22.1095 4.01494C11.786 4.96954 4 13.3713 4 23.5515C4 34.366 12.988 43.1666 24.0326 43.1666C34.4295 43.1666 43.0102 35.5429 43.9851 25.4281C44.0431 24.8295 43.931 24.227 43.6611 23.687C43.3913 23.147 42.9742 22.6905 42.4559 22.3681Z" fill="#B0BEC5"/>
</svg>
