<svg width="48" height="48" viewBox="0 0 48 48" fill="none" xmlns="http://www.w3.org/2000/svg">
<path d="M47.3052 16.4415C46.8304 16.135 46.2234 16.126 45.7396 16.4115C45.0966 16.7871 44.3303 16.9854 43.522 16.9854C41.037 16.9854 39.0147 14.9631 39.0147 12.4781C39.0147 11.6698 39.213 10.9036 39.5886 10.2635C39.8741 9.77676 39.8621 9.17278 39.5586 8.69501C39.2521 8.22024 38.6992 7.95281 38.1493 8.00689C33.5037 8.4456 30 12.3068 30 16.9854C30 21.9555 34.0446 26 39.0147 26C43.6933 26 47.5546 22.4963 47.9933 17.8478C48.0194 17.5728 47.969 17.2958 47.8475 17.0477C47.7261 16.7995 47.5384 16.5897 47.3052 16.4415Z" fill="#B0BEC5"/>
<path d="M39 23C38.904 23 38.808 23 38.706 23.003C37.308 16.064 31.227 11 24 11C17.997 11 12.609 14.573 10.248 20.003C4.575 20.138 0 24.794 0 30.5C0 36.29 4.71 41 10.5 41H39C43.962 41 48 36.962 48 32C48 27.038 43.962 23 39 23Z" fill="#E3F2FD"/>
</svg>
