<svg width="48" height="48" viewBox="0 0 48 48" fill="none" xmlns="http://www.w3.org/2000/svg">
<path d="M26.0625 14.8C26.1165 14.8 26.1705 14.8 26.2279 14.8017C27.0142 10.8696 30.4348 8 34.5 8C37.8767 8 40.9074 10.0247 42.2355 13.1017C45.4266 13.1782 48 15.8166 48 19.05C48 22.331 45.3506 25 42.0938 25H26.0625C23.2714 25 21 22.7118 21 19.9C21 17.0882 23.2714 14.8 26.0625 14.8Z" fill="#777F85"/>
<path d="M39 23C38.904 23 38.808 23 38.706 23.003C37.308 16.064 31.227 11 24 11C17.997 11 12.609 14.573 10.248 20.003C4.575 20.138 0 24.794 0 30.5C0 36.29 4.71 41 10.5 41H39C43.962 41 48 36.962 48 32C48 27.038 43.962 23 39 23Z" fill="#E3F2FD"/>
</svg>
