<svg width="48" height="48" viewBox="0 0 48 48" fill="none" xmlns="http://www.w3.org/2000/svg">
<g clip-path="url(#clip0_68_388)">
<path d="M26.0625 6.8C26.1165 6.8 26.1705 6.8 26.2279 6.8017C27.0142 2.8696 30.4348 0 34.5 0C37.8767 0 40.9074 2.0247 42.2355 5.1017C45.4266 5.1782 48 7.8166 48 11.05C48 14.331 45.3506 17 42.0938 17H26.0625C23.2714 17 21 14.7118 21 11.9C21 9.0882 23.2714 6.8 26.0625 6.8Z" fill="#777F85"/>
<path d="M39 15C38.904 15 38.808 15 38.706 15.003C37.308 8.064 31.227 3 24 3C17.997 3 12.609 6.573 10.248 12.003C4.575 12.138 0 16.794 0 22.5C0 28.29 4.71 33 10.5 33H39C43.962 33 48 28.962 48 24C48 19.038 43.962 15 39 15Z" fill="#E3F2FD"/>
<path d="M22.267 36.6485C21.283 38.0675 19 41.5805 19 43.5005C19 45.9815 21.019 48.0005 23.5 48.0005C25.981 48.0005 28 45.9815 28 43.5005C28 41.5805 25.714 38.0675 24.733 36.6485C24.178 35.8385 22.822 35.8385 22.267 36.6485Z" fill="#2196F3"/>
</g>
<defs>
<clipPath id="clip0_68_388">
<rect width="48" height="48" fill="white"/>
</clipPath>
</defs>
</svg>
