<svg width="48" height="48" viewBox="0 0 48 48" fill="none" xmlns="http://www.w3.org/2000/svg">
<g clip-path="url(#clip0_68_372)">
<path d="M39 18C43.9706 18 48 13.9706 48 9C48 4.02944 43.9706 0 39 0C34.0294 0 30 4.02944 30 9C30 13.9706 34.0294 18 39 18Z" fill="#FFC107"/>
<path d="M39 15C38.904 15 38.808 15 38.706 15.003C37.308 8.064 31.227 3 24 3C17.997 3 12.609 6.573 10.248 12.003C4.575 12.138 0 16.794 0 22.5C0 28.29 4.71 33 10.5 33H39C43.962 33 48 28.962 48 24C48 19.038 43.962 15 39 15Z" fill="#E3F2FD"/>
<path d="M15.267 36.648C14.283 38.067 12 41.58 12 43.5C12 45.981 14.019 48 16.5 48C18.981 48 21 45.981 21 43.5C21 41.58 18.714 38.067 17.733 36.648C17.178 35.838 15.822 35.838 15.267 36.648Z" fill="#2196F3"/>
<path d="M30.267 36.648C29.283 38.067 27 41.58 27 43.5C27 45.981 29.019 48 31.5 48C33.981 48 36 45.981 36 43.5C36 41.58 33.714 38.067 32.733 36.648C32.178 35.838 30.822 35.838 30.267 36.648Z" fill="#2196F3"/>
</g>
<defs>
<clipPath id="clip0_68_372">
<rect width="48" height="48" fill="white"/>
</clipPath>
</defs>
</svg>
