<svg width="48" height="48" viewBox="0 0 48 48" fill="none" xmlns="http://www.w3.org/2000/svg">
<g clip-path="url(#clip0_68_381)">
<path d="M47.3052 8.44154C46.8304 8.13504 46.2234 8.12603 45.7396 8.41149C45.0966 8.7871 44.3303 8.98542 43.522 8.98542C41.037 8.98542 39.0147 6.96315 39.0147 4.47813C39.0147 3.66982 39.213 2.90358 39.5886 2.26354C39.8741 1.77676 39.8621 1.17278 39.5586 0.695007C39.2521 0.220239 38.6992 -0.0471939 38.1493 0.00689364C33.5037 0.445603 30 4.30685 30 8.98542C30 13.9555 34.0446 18 39.0147 18C43.6933 18 47.5546 14.4963 47.9933 9.84781C48.0194 9.57275 47.969 9.29583 47.8475 9.04766C47.7261 8.79948 47.5384 8.58971 47.3052 8.44154Z" fill="#B0BEC5"/>
<path d="M39 15C38.904 15 38.808 15 38.706 15.003C37.308 8.064 31.227 3 24 3C17.997 3 12.609 6.573 10.248 12.003C4.575 12.138 0 16.794 0 22.5C0 28.29 4.71 33 10.5 33H39C43.962 33 48 28.962 48 24C48 19.038 43.962 15 39 15Z" fill="#E3F2FD"/>
<path d="M15.267 36.648C14.283 38.067 12 41.58 12 43.5C12 45.981 14.019 48 16.5 48C18.981 48 21 45.981 21 43.5C21 41.58 18.714 38.067 17.733 36.648C17.178 35.838 15.822 35.838 15.267 36.648Z" fill="#2196F3"/>
<path d="M30.267 36.648C29.283 38.067 27 41.58 27 43.5C27 45.981 29.019 48 31.5 48C33.981 48 36 45.981 36 43.5C36 41.58 33.714 38.067 32.733 36.648C32.178 35.838 30.822 35.838 30.267 36.648Z" fill="#2196F3"/>
</g>
<defs>
<clipPath id="clip0_68_381">
<rect width="48" height="48" fill="white"/>
</clipPath>
</defs>
</svg>
