<svg width="48" height="48" viewBox="0 0 48 48" fill="none" xmlns="http://www.w3.org/2000/svg">
<g clip-path="url(#clip0_68_379)">
<path d="M26.0625 6.8C26.1165 6.8 26.1705 6.8 26.2279 6.8017C27.0142 2.8696 30.4348 0 34.5 0C37.8767 0 40.9074 2.0247 42.2355 5.1017C45.4266 5.1782 48 7.8166 48 11.05C48 14.331 45.3506 17 42.0938 17H26.0625C23.2714 17 21 14.7118 21 11.9C21 9.0882 23.2714 6.8 26.0625 6.8Z" fill="#777F85"/>
<path d="M39 15C38.904 15 38.808 15 38.706 15.003C37.308 8.064 31.227 3 24 3C17.997 3 12.609 6.573 10.248 12.003C4.575 12.138 0 16.794 0 22.5C0 28.29 4.71 33 10.5 33H39C43.962 33 48 28.962 48 24C48 19.038 43.962 15 39 15Z" fill="#E3F2FD"/>
<path d="M29.7329 33.645C29.4539 33.24 28.9919 33 28.4999 33H25.4999V25.5C25.4999 24.774 24.9809 24.153 24.2699 24.024C23.5619 23.904 22.8509 24.294 22.5959 24.972L18.0959 36.972C17.9219 37.431 17.9879 37.95 18.2669 38.355C18.4051 38.5541 18.5894 38.7168 18.8041 38.8291C19.0189 38.9414 19.2576 39 19.4999 39H22.4999V46.5C22.4998 46.8515 22.6232 47.192 22.8486 47.4617C23.074 47.7315 23.387 47.9136 23.7329 47.976C23.8229 47.991 23.9129 48 24.0029 48C24.6179 48 25.1849 47.619 25.4069 47.028L29.9069 35.028C29.9909 34.8004 30.019 34.556 29.9887 34.3153C29.9584 34.0746 29.8707 33.8447 29.7329 33.645Z" fill="#FFC107"/>
</g>
<defs>
<clipPath id="clip0_68_379">
<rect width="48" height="48" fill="white"/>
</clipPath>
</defs>
</svg>
