<svg width="48" height="48" viewBox="0 0 48 48" fill="none" xmlns="http://www.w3.org/2000/svg">
<path d="M17.6453 21.6823C17.4262 21.6826 17.211 21.6245 17.0219 21.5139L7.13694 15.8073C6.98732 15.7293 6.85502 15.6219 6.74801 15.4915C6.64101 15.3611 6.56151 15.2104 6.5143 15.0484C6.46709 14.8865 6.45315 14.7166 6.47333 14.5491C6.4935 14.3816 6.54736 14.22 6.63168 14.0739C6.71599 13.9277 6.82901 13.8002 6.96392 13.6989C7.09884 13.5977 7.25286 13.5247 7.4167 13.4846C7.58054 13.4444 7.75082 13.4378 7.91728 13.4652C8.08374 13.4926 8.24293 13.5534 8.38527 13.6439L18.2703 19.3506C18.5081 19.4884 18.694 19.7007 18.799 19.9547C18.904 20.2088 18.9223 20.4904 18.8512 20.7559C18.78 21.0214 18.6233 21.2561 18.4053 21.4235C18.1873 21.591 17.9202 21.6819 17.6453 21.6823ZM40.2369 34.7256C40.0179 34.726 39.8027 34.6679 39.6136 34.5572L29.7286 28.8506C29.4538 28.6789 29.2565 28.4071 29.1781 28.0927C29.0998 27.7783 29.1466 27.4458 29.3088 27.1652C29.4709 26.8846 29.7356 26.678 30.0471 26.5888C30.3586 26.4997 30.6926 26.5349 30.9786 26.6873L40.8636 32.3939C41.1016 32.5318 41.2875 32.7443 41.3925 32.9985C41.4974 33.2527 41.5157 33.5344 41.4443 33.8C41.3729 34.0656 41.2159 34.3003 40.9976 34.4676C40.7793 34.6349 40.512 34.7256 40.2369 34.7256Z" fill="#E3F2FD"/>
<path d="M7.13694 20.3206C6.84524 20.3211 6.56257 20.2195 6.33788 20.0335C6.11319 19.8475 5.96063 19.5887 5.90662 19.3021C5.85262 19.0154 5.90056 18.7189 6.04216 18.4639C6.18375 18.2088 6.41008 18.0114 6.68194 17.9056L10.6103 16.3706L9.97694 12.199C9.92719 11.8714 10.0095 11.5376 10.2057 11.2707C10.402 11.0038 10.6962 10.8258 11.0236 10.7756C11.186 10.7494 11.3519 10.7558 11.5118 10.7944C11.6717 10.833 11.8223 10.903 11.9548 11.0005C12.0873 11.0979 12.199 11.2208 12.2835 11.3619C12.368 11.503 12.4236 11.6595 12.4469 11.8223L13.2336 16.984C13.2765 17.2648 13.2224 17.5518 13.0804 17.7978C12.9383 18.0438 12.7166 18.2341 12.4519 18.3373L7.59028 20.2373C7.44553 20.2926 7.29188 20.3208 7.13694 20.3206ZM12.7836 23.5823C12.5644 23.5818 12.3492 23.5238 12.1595 23.4139C11.9698 23.304 11.8124 23.1461 11.703 22.9562C11.5936 22.7662 11.536 22.5509 11.5361 22.3317C11.5363 22.1125 11.594 21.8971 11.7036 21.7073L15.7786 14.6473C15.9441 14.3604 16.2169 14.151 16.5368 14.0653C16.8567 13.9795 17.1976 14.0243 17.4844 14.1898C17.7713 14.3553 17.9807 14.6281 18.0665 14.948C18.1523 15.2679 18.1075 15.6087 17.9419 15.8956L13.8669 22.9573C13.7572 23.1474 13.5992 23.3053 13.4091 23.415C13.2189 23.5247 13.0032 23.5824 12.7836 23.5823ZM36.7869 37.4406C36.4885 37.4401 36.2001 37.3327 35.9739 37.138C35.7476 36.9433 35.5986 36.674 35.5536 36.379L34.7669 31.2173C34.7241 30.9365 34.7781 30.6494 34.9202 30.4034C35.0623 30.1574 35.2839 29.9671 35.5486 29.864L40.4103 27.964C40.5633 27.9043 40.7265 27.8754 40.8907 27.8788C41.0548 27.8823 41.2167 27.918 41.3671 27.984C41.5174 28.05 41.6533 28.145 41.767 28.2635C41.8806 28.3821 41.9698 28.5218 42.0294 28.6748C42.0891 28.8278 42.118 28.991 42.1146 29.1552C42.1111 29.3194 42.0754 29.4812 42.0094 29.6316C41.9434 29.7819 41.8484 29.9178 41.7299 30.0315C41.6113 30.1451 41.4716 30.2343 41.3186 30.294L37.3903 31.829L38.0253 36.0006C38.075 36.3281 37.9927 36.662 37.7965 36.9289C37.6002 37.1958 37.3061 37.3738 36.9786 37.424L36.7869 37.4406ZM31.1386 34.179C30.9194 34.1785 30.7042 34.1204 30.5145 34.0105C30.3248 33.9006 30.1674 33.7428 30.058 33.5529C29.9486 33.3629 29.891 33.1475 29.8911 32.9283C29.8913 32.7091 29.949 32.4938 30.0586 32.304L34.1336 25.244C34.3053 24.9692 34.5771 24.7718 34.8915 24.6935C35.2059 24.6152 35.5384 24.662 35.819 24.8241C36.0996 24.9862 36.3062 25.2509 36.3954 25.5625C36.4845 25.874 36.4492 26.208 36.2969 26.494L32.2219 33.554C32.1127 33.7446 31.9549 33.9028 31.7646 34.0126C31.5743 34.1224 31.3583 34.1798 31.1386 34.179Z" fill="#E3F2FD"/>
<path d="M15.9053 19.4273L15.2803 20.5106L17.022 21.5156C17.1639 21.598 17.3207 21.6516 17.4835 21.6732C17.6462 21.6949 17.8116 21.6842 17.9701 21.6418C18.1287 21.5993 18.2773 21.526 18.4075 21.426C18.5377 21.326 18.6468 21.2012 18.7286 21.0589L15.9053 19.4273ZM13.0803 17.7956C12.9386 18.042 12.7169 18.2326 12.4519 18.3356L11.8936 18.5539L13.1153 19.2589L13.7403 18.1756L13.0803 17.7956ZM6.67862 14.1006C6.5132 14.3877 6.46855 14.7288 6.5545 15.0488C6.64044 15.3688 6.84994 15.6416 7.13695 15.8073L9.12195 16.9523L10.6119 16.3689L6.67862 14.1006ZM37.3886 31.8306L37.6286 33.4123L39.6136 34.5573C39.7556 34.6397 39.9124 34.6932 40.0751 34.7149C40.2378 34.7365 40.4032 34.7258 40.5618 34.6834C40.7204 34.641 40.869 34.5677 40.9992 34.4676C41.1293 34.3676 41.2385 34.2429 41.3203 34.1006L37.3886 31.8306ZM34.2603 30.0239L33.6353 31.1056L34.857 31.8106L34.7669 31.2173C34.7245 30.9366 34.7785 30.6498 34.9203 30.4039L34.2603 30.0239ZM29.272 27.1439C29.1064 27.4308 29.0615 27.7717 29.1471 28.0918C29.2327 28.4118 29.4419 28.6847 29.7286 28.8506L31.4703 29.8556L32.0953 28.7739L29.272 27.1439Z" fill="#E3F2FD"/>
<path d="M10.6119 16.3705L9.12194 16.9539L6.68194 17.9055C6.52895 17.9652 6.38921 18.0544 6.27069 18.168C6.15217 18.2817 6.05719 18.4176 5.99118 18.5679C5.85788 18.8716 5.85066 19.2157 5.97111 19.5247C6.09156 19.8337 6.32982 20.0822 6.63347 20.2155C6.93713 20.3488 7.2813 20.356 7.59028 20.2355L11.8936 18.5539L12.4519 18.3355C12.7169 18.2326 12.9386 18.042 13.0803 17.7955L10.6119 16.3705ZM13.7403 18.1772L13.1153 19.2605L11.7019 21.7072C11.5496 21.9932 11.5143 22.3272 11.6035 22.6387C11.6927 22.9502 11.8993 23.215 12.1799 23.3771C12.4604 23.5392 12.793 23.586 13.1074 23.5077C13.4218 23.4294 13.6936 23.232 13.8653 22.9572L15.2786 20.5089L15.9036 19.4255L13.7403 18.1772ZM34.9203 30.4039C34.7783 30.6497 34.7242 30.9366 34.7669 31.2172L34.8569 31.8105L35.5519 36.3772C35.5969 36.6723 35.746 36.9415 35.9722 37.1362C36.1984 37.3309 36.4868 37.4383 36.7853 37.4389L36.9753 37.4239C37.3027 37.3737 37.5969 37.1957 37.7931 36.9288C37.9894 36.6619 38.0717 36.3281 38.0219 36.0005L37.6286 33.4105L37.3886 31.8289L34.9203 30.4039ZM32.0953 28.7739L31.4703 29.8555L30.0569 32.3022C29.9046 32.5882 29.8694 32.9222 29.9585 33.2337C30.0477 33.5452 30.2543 33.8099 30.5349 33.9721C30.8154 34.1342 31.148 34.181 31.4624 34.1027C31.7768 34.0243 32.0485 33.827 32.2203 33.5522L33.6336 31.1039L34.2586 30.0222L32.0953 28.7739Z" fill="#E3F2FD"/>
<path d="M7.76361 34.7256C7.48858 34.7256 7.22121 34.6349 7.00294 34.4676C6.78466 34.3003 6.62767 34.0656 6.55628 33.8C6.4849 33.5344 6.5031 33.2527 6.60808 32.9985C6.71306 32.7442 6.89895 32.5317 7.13695 32.3939L17.0219 26.6872C17.308 26.5349 17.6419 26.4996 17.9534 26.5888C18.265 26.678 18.5297 26.8846 18.6918 27.1652C18.8539 27.4457 18.9007 27.7783 18.8224 28.0927C18.7441 28.4071 18.5467 28.6788 18.2719 28.8506L8.38695 34.5572C8.19787 34.6679 7.98267 34.726 7.76361 34.7256ZM30.3553 21.6822C30.0802 21.6823 29.8129 21.5916 29.5946 21.4243C29.3763 21.2569 29.2193 21.0223 29.1479 20.7567C29.0766 20.4911 29.0948 20.2093 29.1997 19.9551C29.3047 19.7009 29.4906 19.4884 29.7286 19.3506L39.6136 13.6439C39.7557 13.5618 39.9125 13.5085 40.0751 13.4871C40.2378 13.4656 40.403 13.4764 40.5615 13.5188C40.72 13.5612 40.8686 13.6344 40.9988 13.7342C41.129 13.834 41.2382 13.9585 41.3203 14.1006C41.4024 14.2426 41.4557 14.3994 41.4771 14.5621C41.4986 14.7247 41.4878 14.89 41.4454 15.0485C41.403 15.207 41.3298 15.3555 41.23 15.4857C41.1301 15.6159 41.0057 15.7252 40.8636 15.8072L30.9786 21.5139C30.7895 21.6245 30.5743 21.6826 30.3553 21.6822Z" fill="#E3F2FD"/>
<path d="M11.2136 37.4406L11.0236 37.4256C10.6962 37.3755 10.402 37.1974 10.2057 36.9306C10.0095 36.6637 9.92719 36.3298 9.97694 36.0023L10.6119 31.8306L6.68361 30.2956C6.53062 30.236 6.39087 30.1468 6.27235 30.0331C6.15383 29.9195 6.05885 29.7836 5.99285 29.6333C5.92684 29.4829 5.89109 29.321 5.88765 29.1569C5.88421 28.9927 5.91313 28.8295 5.97277 28.6765C6.03241 28.5235 6.12161 28.3837 6.23525 28.2652C6.3489 28.1467 6.48478 28.0517 6.63514 27.9857C6.78549 27.9197 6.94737 27.884 7.11154 27.8805C7.27571 27.8771 7.43895 27.906 7.59194 27.9656L12.4536 29.8656C12.7179 29.9693 12.9392 30.1597 13.0812 30.4055C13.2232 30.6514 13.2775 30.9382 13.2353 31.219L12.4486 36.379C12.4033 36.6742 12.2539 36.9434 12.0274 37.1381C11.8009 37.3328 11.5123 37.4401 11.2136 37.4406ZM16.8619 34.179C16.6422 34.1798 16.4263 34.1224 16.236 34.0126C16.0457 33.9028 15.8879 33.7446 15.7786 33.554L11.7036 26.494C11.5513 26.208 11.516 25.874 11.6052 25.5625C11.6943 25.2509 11.901 24.9862 12.1815 24.8241C12.4621 24.662 12.7947 24.6152 13.1091 24.6935C13.4235 24.7718 13.6952 24.9692 13.8669 25.244L17.9419 32.304C18.0515 32.4938 18.1093 32.7091 18.1094 32.9283C18.1095 33.1475 18.052 33.3629 17.9426 33.5529C17.8332 33.7428 17.6757 33.9007 17.4861 34.0105C17.2964 34.1204 17.0811 34.1785 16.8619 34.179ZM40.8636 20.3206C40.7086 20.3204 40.5549 20.2915 40.4103 20.2356L35.5486 18.3356C35.2839 18.2324 35.0623 18.0422 34.9202 17.7962C34.7781 17.5502 34.7241 17.2631 34.7669 16.9823L35.5536 11.8206C35.6133 11.502 35.7945 11.2191 36.0589 11.0315C36.3233 10.8439 36.6502 10.7664 36.9706 10.8153C37.2911 10.8641 37.58 11.0356 37.7765 11.2934C37.9729 11.5513 38.0616 11.8754 38.0236 12.1973L37.3886 16.369L41.3169 17.904C41.5898 18.0089 41.8172 18.2062 41.9597 18.4614C42.1022 18.7167 42.1507 19.0138 42.0968 19.3011C42.0429 19.5884 41.89 19.8478 41.6647 20.034C41.4394 20.2203 41.1559 20.3217 40.8636 20.3206ZM35.2169 23.5823C34.9972 23.5831 34.7813 23.5257 34.591 23.4159C34.4007 23.3061 34.2429 23.1479 34.1336 22.9573L30.0586 15.8973C29.9063 15.6113 29.871 15.2773 29.9602 14.9658C30.0493 14.6543 30.256 14.3896 30.5365 14.2274C30.8171 14.0653 31.1497 14.0185 31.4641 14.0968C31.7785 14.1752 32.0502 14.3725 32.2219 14.6473L36.2969 21.7073C36.4065 21.8971 36.4643 22.1125 36.4644 22.3317C36.4645 22.5509 36.407 22.7663 36.2976 22.9562C36.1882 23.1462 36.0307 23.304 35.8411 23.4139C35.6514 23.5238 35.4361 23.5819 35.2169 23.5823Z" fill="#E3F2FD"/>
<path d="M10.6103 31.8306L6.6786 34.1006C6.76059 34.2427 6.8698 34.3673 6.99998 34.4672C7.13015 34.5671 7.27875 34.6403 7.43726 34.6827C7.59577 34.7252 7.76109 34.7359 7.92376 34.7144C8.08643 34.6928 8.24326 34.6394 8.38527 34.5573L10.3703 33.4123L10.6103 31.8306ZM13.7403 30.0239L13.0803 30.4039C13.222 30.6498 13.2761 30.9366 13.2336 31.2173L13.1436 31.8106L14.3653 31.1056L13.7403 30.0239ZM18.7286 27.1439L15.9053 28.7739L16.5303 29.8556L18.2703 28.8506C18.5573 28.685 18.7668 28.4122 18.8527 28.0921C18.9387 27.7721 18.894 27.431 18.7286 27.1439ZM32.0953 19.4256L29.2719 21.0556C29.3539 21.1977 29.4631 21.3223 29.5933 21.4222C29.7235 21.5221 29.8721 21.5953 30.0306 21.6377C30.1891 21.6802 30.3544 21.6909 30.5171 21.6694C30.6798 21.6478 30.8366 21.5944 30.9786 21.5123L32.7203 20.5073L32.0953 19.4256ZM34.9203 17.7956L34.2619 18.1756L34.8869 19.2589L36.1086 18.5539L35.5503 18.3356C35.2846 18.2332 35.0621 18.0425 34.9203 17.7956ZM41.3219 14.1006L37.3903 16.3706L38.8803 16.9539L40.8653 15.8089C41.1521 15.6427 41.3613 15.3695 41.4469 15.0492C41.5325 14.7289 41.4876 14.3878 41.3219 14.1006Z" fill="#E3F2FD"/>
<path d="M13.0803 30.4039L10.6103 31.8289L10.3703 33.4105L9.97694 36.0005C9.92718 36.3281 10.0095 36.6619 10.2057 36.9288C10.402 37.1957 10.6961 37.3737 11.0236 37.4239L11.2136 37.4389C11.5121 37.4383 11.8005 37.3309 12.0267 37.1362C12.2529 36.9415 12.402 36.6723 12.4469 36.3772L13.1419 31.8105L13.2336 31.2172C13.2761 30.9366 13.222 30.6498 13.0803 30.4039ZM15.9053 28.7739L13.7403 30.0239L14.3653 31.1055L15.7786 33.5539C15.8607 33.6959 15.9699 33.8204 16.1001 33.9202C16.2303 34.0201 16.3789 34.0933 16.5374 34.1357C16.6958 34.1781 16.8611 34.1889 17.0238 34.1674C17.1864 34.1459 17.3432 34.0926 17.4853 34.0105C17.6273 33.9285 17.7518 33.8192 17.8516 33.689C17.9515 33.5588 18.0247 33.4103 18.0671 33.2518C18.1095 33.0933 18.1202 32.928 18.0988 32.7654C18.0773 32.6027 18.024 32.4459 17.9419 32.3039L16.5286 29.8572L15.9053 28.7739ZM37.3886 16.3705L34.9186 17.7955C35.0569 18.0355 35.2736 18.2289 35.5469 18.3355L36.1053 18.5539L40.4086 20.2355C40.5614 20.2953 40.7244 20.3244 40.8884 20.321C41.0524 20.3177 41.2141 20.282 41.3643 20.2161C41.5145 20.1501 41.6502 20.0552 41.7636 19.9367C41.877 19.8182 41.9659 19.6785 42.0253 19.5255C42.0851 19.3726 42.1142 19.2093 42.1109 19.0451C42.1076 18.8808 42.072 18.7188 42.0061 18.5684C41.9401 18.4179 41.8452 18.2819 41.7266 18.1682C41.6081 18.0545 41.4683 17.9652 41.3153 17.9055L38.8769 16.9522L37.3886 16.3705ZM34.2603 18.1772L32.0953 19.4272L32.7203 20.5105L34.1336 22.9589C34.2157 23.1009 34.3249 23.2254 34.4551 23.3252C34.5853 23.4251 34.7339 23.4983 34.8924 23.5407C35.0508 23.5831 35.2161 23.5939 35.3788 23.5724C35.5414 23.5509 35.6982 23.4976 35.8403 23.4155C35.9823 23.3335 36.1068 23.2242 36.2066 23.094C36.3065 22.9638 36.3797 22.8153 36.4221 22.6568C36.4645 22.4983 36.4753 22.333 36.4538 22.1704C36.4323 22.0077 36.379 21.8509 36.2969 21.7089L34.8836 19.2622L34.2603 18.1772Z" fill="#E3F2FD"/>
<path d="M24.0003 18.0139C23.6688 18.0139 23.3508 17.8822 23.1164 17.6478C22.882 17.4134 22.7503 17.0954 22.7503 16.7639V5.35059C22.7503 5.01907 22.882 4.70112 23.1164 4.4667C23.3508 4.23228 23.6688 4.10059 24.0003 4.10059C24.3318 4.10059 24.6497 4.23228 24.8842 4.4667C25.1186 4.70112 25.2503 5.01907 25.2503 5.35059V16.7639C25.2503 17.0954 25.1186 17.4134 24.8842 17.6478C24.6497 17.8822 24.3318 18.0139 24.0003 18.0139Z" fill="#E3F2FD"/>
<path d="M23.9919 32.6872C21.7154 32.6846 19.5329 31.7791 17.9232 30.1693C16.3134 28.5596 15.4079 26.3771 15.4053 24.1006C15.4079 21.8241 16.3134 19.6416 17.9232 18.0318C19.5329 16.4221 21.7154 15.5166 23.9919 15.5139C28.7269 15.5139 32.5786 19.3656 32.5786 24.1006C32.5786 28.8356 28.7269 32.6872 23.9919 32.6872ZM23.9919 18.0139C20.6353 18.0139 17.9053 20.7439 17.9053 24.1006C17.9053 27.4572 20.6369 30.1872 23.9919 30.1872C25.6057 30.1855 27.1528 29.5436 28.2939 28.4026C29.435 27.2615 30.0768 25.7143 30.0786 24.1006C30.0768 22.4868 29.435 20.9397 28.2939 19.7986C27.1528 18.6575 25.6057 18.0157 23.9919 18.0139Z" fill="#E3F2FD"/>
<path d="M24.0003 44.1006C23.6688 44.1006 23.3508 43.9689 23.1164 43.7345C22.882 43.5001 22.7503 43.1821 22.7503 42.8506V31.4373C22.7503 31.1057 22.882 30.7878 23.1164 30.5534C23.3508 30.319 23.6688 30.1873 24.0003 30.1873C24.3318 30.1873 24.6497 30.319 24.8842 30.5534C25.1186 30.7878 25.2503 31.1057 25.2503 31.4373V42.8506C25.2503 43.1821 25.1186 43.5001 24.8842 43.7345C24.6497 43.9689 24.3318 44.1006 24.0003 44.1006Z" fill="#E3F2FD"/>
<path d="M24.0003 11.4923C23.716 11.4924 23.4402 11.3954 23.2186 11.2173L19.1436 7.95727C19.0155 7.85462 18.9088 7.72774 18.8297 7.58386C18.7506 7.43999 18.7006 7.28194 18.6825 7.11874C18.6645 6.95554 18.6788 6.79039 18.7246 6.63271C18.7704 6.47504 18.8468 6.32792 18.9494 6.19977C19.0521 6.07163 19.179 5.96495 19.3229 5.88584C19.4667 5.80673 19.6248 5.75673 19.788 5.7387C19.9512 5.72067 20.1163 5.73496 20.274 5.78076C20.4317 5.82655 20.5788 5.90296 20.7069 6.00561L24.0003 8.64061L27.2953 6.00394C27.5556 5.81468 27.8788 5.73296 28.1978 5.77577C28.5168 5.81857 28.807 5.9826 29.0082 6.23379C29.2094 6.48499 29.3062 6.80403 29.2783 7.12467C29.2504 7.4453 29.1001 7.74289 28.8586 7.95561L24.7819 11.2173C24.5604 11.3954 24.2846 11.4924 24.0003 11.4923ZM23.9919 27.7973C21.9536 27.7973 20.2953 26.1389 20.2953 24.1006C20.2953 22.0623 21.9536 20.4056 23.9919 20.4056C26.0303 20.4056 27.6886 22.0639 27.6886 24.1006C27.6886 26.1373 26.0303 27.7973 23.9919 27.7973ZM28.0753 14.7523H19.9253C19.5938 14.7523 19.2758 14.6206 19.0414 14.3862C18.807 14.1517 18.6753 13.8338 18.6753 13.5023C18.6753 13.1708 18.807 12.8528 19.0414 12.6184C19.2758 12.384 19.5938 12.2523 19.9253 12.2523H28.0769C28.4085 12.2525 28.7263 12.3844 28.9606 12.619C29.1948 12.8536 29.3263 13.1716 29.3261 13.5031C29.3259 13.8346 29.194 14.1525 28.9594 14.3867C28.7248 14.621 28.4068 14.7525 28.0753 14.7523ZM28.0753 42.4706C27.791 42.4707 27.5152 42.3737 27.2936 42.1956L24.0003 39.5606L20.7053 42.1973C20.5771 42.2999 20.43 42.3763 20.2723 42.4221C20.1147 42.4679 19.9495 42.4822 19.7863 42.4642C19.6231 42.4462 19.4651 42.3962 19.3212 42.317C19.1773 42.2379 19.0504 42.1313 18.9478 42.0031C18.8451 41.875 18.7687 41.7278 18.7229 41.5702C18.6771 41.4125 18.6628 41.2473 18.6809 41.0841C18.6989 40.9209 18.7489 40.7629 18.828 40.619C18.9071 40.4751 19.0138 40.3483 19.1419 40.2456L23.2169 36.9839C23.4386 36.8059 23.7143 36.7089 23.9986 36.7089C24.2829 36.7089 24.5586 36.8059 24.7803 36.9839L28.8553 40.2456C29.057 40.4075 29.2036 40.628 29.2748 40.8767C29.346 41.1254 29.3382 41.39 29.2527 41.6341C29.1671 41.8783 29.0079 42.0898 28.797 42.2396C28.5861 42.3894 28.334 42.4701 28.0753 42.4706ZM28.0753 35.9489H19.9253C19.5938 35.9489 19.2758 35.8172 19.0414 35.5828C18.807 35.3484 18.6753 35.0305 18.6753 34.6989C18.6753 34.3674 18.807 34.0495 19.0414 33.8151C19.2758 33.5806 19.5938 33.4489 19.9253 33.4489H28.0769C28.2411 33.4491 28.4036 33.4815 28.5552 33.5444C28.7068 33.6073 28.8446 33.6995 28.9606 33.8156C29.0766 33.9318 29.1686 34.0697 29.2313 34.2214C29.294 34.3731 29.3262 34.5356 29.3261 34.6998C29.326 34.8639 29.2936 35.0265 29.2306 35.1781C29.1677 35.3297 29.0756 35.4674 28.9594 35.5834C28.8433 35.6994 28.7054 35.7914 28.5537 35.8541C28.402 35.9168 28.2394 35.9491 28.0753 35.9489Z" fill="#E3F2FD"/>
<path d="M24.0003 14.7523H22.7503V15.6023C23.1553 15.5439 23.5703 15.5123 23.9919 15.5123H24.0003V14.7523ZM22.7503 10.8423V12.2523H24.0003V11.4923C23.716 11.4924 23.4402 11.3954 23.2186 11.2173L22.7503 10.8423ZM24.0003 4.10059C23.6688 4.10059 23.3508 4.23228 23.1164 4.4667C22.882 4.70112 22.7503 5.01907 22.7503 5.35059V7.64059L24.0003 8.64059V4.10059Z" fill="#E3F2FD"/>
<path d="M23.9919 15.5139C21.7157 15.5174 19.5337 16.4232 17.9241 18.0328C16.3146 19.6423 15.4088 21.8243 15.4053 24.1006C15.4079 26.1622 16.151 28.1544 17.4991 29.7142C18.8472 31.274 20.7107 32.2977 22.7503 32.5989V31.4389C22.7503 31.1074 22.882 30.7895 23.1164 30.555C23.3508 30.3206 23.6688 30.1889 24.0003 30.1889H23.9919C22.3782 30.1872 20.8311 29.5453 19.69 28.4042C18.5489 27.2631 17.907 25.716 17.9053 24.1023C17.907 22.4885 18.5489 20.9414 19.69 19.8003C20.8311 18.6592 22.3782 18.0173 23.9919 18.0156H24.0003V15.5156L23.9919 15.5139Z" fill="#E3F2FD"/>
<path d="M24.0003 39.5606L22.7503 40.5606V42.8506C22.7503 43.5406 23.3103 44.1006 24.0003 44.1006V39.5606ZM24.0003 35.9489H22.7503V37.3589L23.2186 36.9839C23.4402 36.8058 23.716 36.7088 24.0003 36.7089V35.9489ZM24.0003 30.1873C23.6688 30.1873 23.3508 30.319 23.1164 30.5534C22.882 30.7878 22.7503 31.1057 22.7503 31.4373V33.4473H24.0003V30.1873Z" fill="#E3F2FD"/>
<path d="M19.9253 5.73219C19.6669 5.73328 19.4152 5.81429 19.2047 5.96411C18.9942 6.11393 18.8353 6.32522 18.7496 6.56898C18.664 6.81274 18.6559 7.07702 18.7264 7.32557C18.797 7.57412 18.9427 7.79475 19.1436 7.95719L22.7503 10.8422L23.2186 11.2172C23.4469 11.4005 23.7236 11.4922 24.0003 11.4922V8.64219L22.7503 7.64219L20.7053 6.00719C20.4849 5.82812 20.2092 5.73094 19.9253 5.73219ZM23.9919 20.4055C23.0121 20.4064 22.0726 20.7959 21.3796 21.4886C20.6865 22.1813 20.2966 23.1207 20.2953 24.1005C20.2962 25.0807 20.6859 26.0204 21.379 26.7135C22.072 27.4066 23.0118 27.7963 23.9919 27.7972H24.0003V20.4055H23.9919ZM24.0003 12.2522H19.9253C19.5938 12.2522 19.2758 12.3839 19.0414 12.6183C18.807 12.8527 18.6753 13.1707 18.6753 13.5022C18.6753 13.8337 18.807 14.1517 19.0414 14.3861C19.2758 14.6205 19.5938 14.7522 19.9253 14.7522H24.0003V12.2522ZM24.0003 36.7089C23.716 36.7087 23.4402 36.8057 23.2186 36.9839L22.7503 37.3589L19.1436 40.2455C18.8918 40.4549 18.7322 40.7547 18.6991 41.0805C18.666 41.4062 18.7621 41.732 18.9667 41.9877C19.1713 42.2434 19.4681 42.4086 19.7932 42.4477C20.1183 42.4869 20.4458 42.397 20.7053 42.1972L22.7503 40.5622L24.0003 39.5622V36.7089ZM24.0003 33.4489H19.9253C19.5938 33.4489 19.2758 33.5805 19.0414 33.815C18.807 34.0494 18.6753 34.3673 18.6753 34.6989C18.6753 35.0304 18.807 35.3483 19.0414 35.5827C19.2758 35.8172 19.5938 35.9489 19.9253 35.9489H24.0003V33.4489Z" fill="#E3F2FD"/>
</svg>
