<svg width="48" height="48" viewBox="0 0 48 48" fill="none" xmlns="http://www.w3.org/2000/svg">
<path d="M43.0049 18.6922L39.2279 17.4837C35.8052 16.3952 32.0511 16.7523 28.9226 18.4665C25.8856 20.1293 22.1144 20.1293 19.0774 18.4665C15.9461 16.7523 12.1891 16.3952 8.76925 17.4837L4.99513 18.6922C4.24088 18.9351 3.82661 19.7379 4.06946 20.4893C4.30659 21.2378 5.1037 21.6464 5.86366 21.4149L9.63778 20.2064C12.3148 19.3522 15.2547 19.6293 17.7031 20.9692C19.6459 22.0378 21.823 22.5663 24 22.5663C26.177 22.5663 28.3541 22.0349 30.2969 20.9692C32.7425 19.6293 35.6795 19.3465 38.3622 20.2036L42.1363 21.4121C42.8906 21.6463 43.6906 21.2321 43.9305 20.4864C44.1734 19.7379 43.7591 18.9351 43.0049 18.6922Z" fill="#E3F2FD"/>
<path fill-rule="evenodd" clip-rule="evenodd" d="M5.86366 12.8439L9.63778 11.6354C12.3148 10.7754 15.2547 11.0583 17.7031 12.3982C19.6459 13.4667 21.823 13.9953 24 13.9953C26.177 13.9953 28.3541 13.4639 30.2969 12.3982C32.7425 11.0554 35.6795 10.7754 38.3622 11.6325L42.1363 12.8411C42.8906 13.0696 43.6906 12.6639 43.9305 11.9154C44.1705 11.164 43.7563 10.3612 43.0049 10.1183L39.2279 8.90981C35.8052 7.81844 32.0511 8.17556 28.9226 9.89262C25.8856 11.5554 22.1144 11.5554 19.0774 9.89262C15.9461 8.17842 12.1891 7.82129 8.76925 8.91267L4.99513 10.1212C4.24088 10.364 3.82661 11.1668 4.06946 11.9182C4.30659 12.6639 5.1037 13.0696 5.86366 12.8439ZM43.0049 27.2632L39.2279 26.0547C35.8052 24.9662 32.0511 25.3233 28.9226 27.0375C25.8856 28.7003 22.1144 28.7003 19.0774 27.0375C15.9461 25.3233 12.1891 24.9662 8.76925 26.0547L4.99513 27.2632C4.24374 27.5061 3.82947 28.3089 4.06946 29.0603C4.30659 29.8117 5.1037 30.2145 5.86366 29.986L9.63778 28.7774C12.3148 27.9203 15.2547 28.2003 17.7031 29.5431C19.6459 30.6088 21.8201 31.1402 24 31.1402C26.1799 31.1402 28.3541 30.6088 30.2969 29.5431C32.7425 28.2003 35.6795 27.9203 38.3622 28.7774L42.1363 29.986C42.8906 30.2145 43.6906 29.8088 43.9305 29.0603C44.1734 28.3089 43.7591 27.5061 43.0049 27.2632Z" fill="#E3F2FD"/>
<path d="M43.0049 35.8342L39.2279 34.6257C35.8052 33.5344 32.0511 33.8943 28.9226 35.6085C25.8856 37.2713 22.1144 37.2713 19.0774 35.6085C15.9461 33.8943 12.1891 33.5344 8.76925 34.6257L4.99513 35.8342C4.24374 36.0771 3.82947 36.8799 4.06946 37.6313C4.30659 38.3798 5.1037 38.7884 5.86366 38.557L9.63778 37.3485C12.3148 36.4914 15.2547 36.7713 17.7031 38.1141C19.6459 39.1798 21.8201 39.7112 24 39.7112C26.1799 39.7112 28.3541 39.1798 30.2969 38.1141C32.7425 36.7713 35.6795 36.4914 38.3622 37.3485L42.1363 38.557C42.8906 38.7912 43.6906 38.3798 43.9305 37.6313C44.1734 36.8799 43.7591 36.0771 43.0049 35.8342Z" fill="#E3F2FD"/>
</svg>
