<svg width="211" height="42" viewBox="0 0 211 42" fill="none" xmlns="http://www.w3.org/2000/svg">
<g clip-path="url(#clip0_18_335)">
<path fill-rule="evenodd" clip-rule="evenodd" d="M40.194 19.6086C40.3354 18.9853 40.4095 18.3357 40.4095 17.67C40.4095 12.8134 36.4733 8.87622 31.6178 8.87622C28.0849 8.87622 25.0392 10.9592 23.6405 13.9654L23.6414 13.9664L23.5849 14.0893L23.558 14.1507L23.5312 14.2131C23.0108 15.4309 22.7728 16.7399 22.8362 18.146L22.8382 18.1572V18.1635V18.1801L22.8397 18.1986L22.8406 18.2152L22.8421 18.2293C22.8548 18.4171 22.8704 18.6019 22.8943 18.7868C22.845 18.4244 22.768 18.0855 22.668 17.7631L22.6441 17.689L22.6426 17.6817L22.6182 17.6148L22.6046 17.5719L22.5934 17.5432L22.5675 17.4715L22.5636 17.4612L22.5397 17.4007L22.5197 17.3525L22.5109 17.33C22.3398 16.9184 22.1193 16.5302 21.8589 16.1752L21.8355 16.1435L21.8155 16.1166L21.7701 16.0591L21.7648 16.0518L21.7243 16.0025L21.6936 15.9625L21.678 15.9459L21.6311 15.8894C21.2815 15.4821 20.8703 15.1237 20.4051 14.8071L20.4065 14.8042C19.537 14.2385 18.4957 13.9083 17.3818 13.9083C14.9774 13.9083 12.9286 15.4348 12.1561 17.5734L12.14 17.6187L12.1249 17.6626L12.1195 17.6792L12.1093 17.708C11.9269 18.2591 11.8274 18.8473 11.8274 19.4613C11.8274 19.768 11.8527 20.069 11.901 20.364L11.8923 20.3621L11.8688 20.3572L11.8488 20.3518H11.8449L11.8201 20.3445L11.8054 20.3391L11.7976 20.3382L11.7752 20.3318L11.7611 20.3299L11.7513 20.3289L11.6294 20.3011V20.3001L11.6055 20.2962C11.1856 20.2099 10.7535 20.166 10.3077 20.166C10.0287 20.166 9.75271 20.1811 9.48301 20.2162L9.48155 20.2182L9.17917 20.2631L9.16064 20.267C6.12714 20.8103 3.82764 23.4565 3.82764 26.6437C3.82764 30.2224 6.72799 33.1237 10.3077 33.1237V33.1228H10.3623H16.9156H33.4306H39.5605H40.0028L39.9984 33.1047C42.7666 32.8809 44.9417 30.5672 44.9417 27.741C44.9417 25.6214 43.7147 23.7872 41.9326 22.9108L41.8936 22.8927L41.8917 22.8888L41.8473 22.8698C41.1523 22.546 40.3783 22.3621 39.5605 22.3621C39.42 22.3621 39.2761 22.368 39.1367 22.3772H39.1342L39.1201 22.3792L39.104 22.3802L39.0874 22.3821L39.0713 22.3831L39.0547 22.3841L39.0406 22.387L39.0664 22.346L39.0815 22.3231L39.0918 22.3051C39.4068 21.7954 39.6726 21.2531 39.8809 20.68L39.8921 20.6522L39.9072 20.6084L39.9331 20.5342L39.9375 20.5201C40.036 20.2221 40.1203 19.9163 40.194 19.6086Z" fill="white"/>
<path d="M39.5603 36.9513L39.1063 36.9391L10.3334 36.9513C4.62389 36.9513 0 32.3269 0 26.6437C0 21.6116 3.59728 17.3696 8.47867 16.4991C9.74084 12.6852 13.305 10.079 17.3826 10.079C18.6355 10.079 19.8757 10.3306 21.0209 10.8125C23.3379 7.23373 27.3117 5.04883 31.6176 5.04883C38.5766 5.04883 44.2378 10.7105 44.2378 17.67C44.2378 18.3553 44.1827 19.0395 44.0735 19.7125C46.9519 21.3312 48.77 24.3969 48.77 27.7411C48.77 32.6351 44.944 36.6748 40.0592 36.9367L39.5603 36.9513ZM17.3826 12.1815C14.0316 12.1815 11.1269 14.4493 10.3188 17.6969L10.1417 18.4089L9.41213 18.4879C5.24522 18.941 2.10296 22.4476 2.10296 26.6437C2.10296 31.1681 5.78315 34.8478 10.3075 34.8478L10.7338 34.8381L39.1345 34.8371L39.5603 34.8473L39.9524 34.8376C43.7155 34.6337 46.6685 31.5168 46.6685 27.7401C46.6685 24.9397 45.0162 22.3934 42.4607 21.2507L41.6691 20.8991L41.8642 20.0559C42.0437 19.279 42.1349 18.4757 42.1349 17.6705C42.1349 11.8708 37.4164 7.15179 31.6176 7.15179C27.7467 7.15179 24.1982 9.27037 22.3557 12.6804L21.8485 13.6187L20.918 13.0988C19.845 12.4985 18.6223 12.1815 17.3826 12.1815Z" fill="white"/>
<path d="M68.6661 30.77C66.5261 30.77 64.6961 30.33 63.1761 29.45C61.6561 28.57 60.4861 27.32 59.6661 25.7C58.8661 24.06 58.4661 22.13 58.4661 19.91C58.4661 17.69 58.8661 15.77 59.6661 14.15C60.4861 12.53 61.6561 11.28 63.1761 10.4C64.6961 9.52 66.5261 9.08 68.6661 9.08C70.1061 9.08 71.4461 9.31 72.6861 9.77C73.9461 10.21 74.9961 10.85 75.8361 11.69L74.7561 14.18C73.8361 13.36 72.8861 12.77 71.9061 12.41C70.9461 12.03 69.8961 11.84 68.7561 11.84C66.4761 11.84 64.7361 12.54 63.5361 13.94C62.3361 15.34 61.7361 17.33 61.7361 19.91C61.7361 22.49 62.3361 24.49 63.5361 25.91C64.7361 27.31 66.4761 28.01 68.7561 28.01C69.8961 28.01 70.9461 27.83 71.9061 27.47C72.8861 27.09 73.8361 26.49 74.7561 25.67L75.8361 28.16C74.9961 28.98 73.9461 29.62 72.6861 30.08C71.4461 30.54 70.1061 30.77 68.6661 30.77ZM84.7995 30.77C83.1995 30.77 81.9995 30.32 81.1995 29.42C80.4195 28.52 80.0295 27.2 80.0295 25.46V9.35H83.0595V25.28C83.0595 27.26 83.8695 28.25 85.4895 28.25C85.7295 28.25 85.9495 28.24 86.1495 28.22C86.3695 28.2 86.5895 28.16 86.8095 28.1L86.7495 30.53C86.0695 30.69 85.4195 30.77 84.7995 30.77ZM96.3129 30.77C94.8329 30.77 93.5529 30.46 92.4729 29.84C91.3929 29.22 90.5529 28.35 89.9529 27.23C89.3729 26.09 89.0829 24.74 89.0829 23.18C89.0829 21.62 89.3729 20.28 89.9529 19.16C90.5529 18.02 91.3929 17.14 92.4729 16.52C93.5529 15.9 94.8329 15.59 96.3129 15.59C97.7529 15.59 99.0129 15.9 100.093 16.52C101.173 17.14 102.013 18.02 102.613 19.16C103.213 20.28 103.513 21.62 103.513 23.18C103.513 24.74 103.213 26.09 102.613 27.23C102.013 28.35 101.173 29.22 100.093 29.84C99.0129 30.46 97.7529 30.77 96.3129 30.77ZM96.3129 28.43C97.5529 28.43 98.5529 27.98 99.3129 27.08C100.073 26.18 100.453 24.88 100.453 23.18C100.453 21.48 100.073 20.19 99.3129 19.31C98.5529 18.41 97.5529 17.96 96.3129 17.96C95.0529 17.96 94.0429 18.41 93.2829 19.31C92.5229 20.19 92.1429 21.48 92.1429 23.18C92.1429 24.88 92.5229 26.18 93.2829 27.08C94.0429 27.98 95.0529 28.43 96.3129 28.43ZM113.036 30.77C109.496 30.77 107.726 28.8 107.726 24.86V15.86H110.756V24.89C110.756 26.07 110.996 26.94 111.476 27.5C111.956 28.06 112.716 28.34 113.756 28.34C114.896 28.34 115.816 27.96 116.516 27.2C117.236 26.44 117.596 25.42 117.596 24.14V15.86H120.626V30.5H117.686V28.16C117.206 29.02 116.566 29.67 115.766 30.11C114.966 30.55 114.056 30.77 113.036 30.77ZM131.376 30.77C130.096 30.77 128.966 30.47 127.986 29.87C127.026 29.25 126.276 28.37 125.736 27.23C125.196 26.09 124.926 24.74 124.926 23.18C124.926 21.62 125.196 20.28 125.736 19.16C126.276 18.02 127.026 17.14 127.986 16.52C128.946 15.9 130.076 15.59 131.376 15.59C132.476 15.59 133.456 15.83 134.316 16.31C135.176 16.79 135.816 17.44 136.236 18.26V9.35H139.266V30.5H136.296V27.95C135.876 28.83 135.226 29.52 134.346 30.02C133.486 30.52 132.496 30.77 131.376 30.77ZM132.156 28.43C133.396 28.43 134.396 27.98 135.156 27.08C135.916 26.18 136.296 24.88 136.296 23.18C136.296 21.48 135.916 20.19 135.156 19.31C134.396 18.41 133.396 17.96 132.156 17.96C130.896 17.96 129.886 18.41 129.126 19.31C128.366 20.19 127.986 21.48 127.986 23.18C127.986 24.88 128.366 26.18 129.126 27.08C129.886 27.98 130.896 28.43 132.156 28.43ZM145.921 35.9L148.531 30.11L142.411 15.86H145.651L150.151 26.99L154.711 15.86H157.831L149.101 35.9H145.921ZM169.687 30.5V9.35H172.717V18.14C173.217 17.3 173.887 16.67 174.727 16.25C175.587 15.81 176.547 15.59 177.607 15.59C181.067 15.59 182.797 17.55 182.797 21.47V30.5H179.767V21.65C179.767 20.39 179.517 19.47 179.017 18.89C178.537 18.31 177.777 18.02 176.737 18.02C175.517 18.02 174.537 18.41 173.797 19.19C173.077 19.95 172.717 20.96 172.717 22.22V30.5H169.687ZM194.232 30.77C192.752 30.77 191.472 30.46 190.392 29.84C189.312 29.22 188.472 28.35 187.872 27.23C187.292 26.09 187.002 24.74 187.002 23.18C187.002 21.62 187.292 20.28 187.872 19.16C188.472 18.02 189.312 17.14 190.392 16.52C191.472 15.9 192.752 15.59 194.232 15.59C195.672 15.59 196.932 15.9 198.012 16.52C199.092 17.14 199.932 18.02 200.532 19.16C201.132 20.28 201.432 21.62 201.432 23.18C201.432 24.74 201.132 26.09 200.532 27.23C199.932 28.35 199.092 29.22 198.012 29.84C196.932 30.46 195.672 30.77 194.232 30.77ZM194.232 28.43C195.472 28.43 196.472 27.98 197.232 27.08C197.992 26.18 198.372 24.88 198.372 23.18C198.372 21.48 197.992 20.19 197.232 19.31C196.472 18.41 195.472 17.96 194.232 17.96C192.972 17.96 191.962 18.41 191.202 19.31C190.442 20.19 190.062 21.48 190.062 23.18C190.062 24.88 190.442 26.18 191.202 27.08C191.962 27.98 192.972 28.43 194.232 28.43ZM206.245 24.65L205.285 9.35H209.035L208.105 24.65H206.245ZM205.375 30.5V26.93H208.945V30.5H205.375Z" fill="white"/>
</g>
<defs>
<clipPath id="clip0_18_335">
<rect width="210.726" height="41" fill="white" transform="translate(0 0.5)"/>
</clipPath>
</defs>
</svg>
